# xmcd
# 
# Track frame offsets:
#     150
#     13656
#     24607
#     38943
#     52742
#     67232
#     76843
#     88107
#     101137
#     111666
#     121737
#     132918
#     146141
#     159862
#     173345
#     187835
# 
# Disc length: 2716
# 
# Revision: 0
# Processed by: cddbd v1.5.2PL0 Copyright (c) Steve Scherf et al.
# Submitted via: fre:ac v1.1beta1pre4
# 
DISCID=cf0a9a10
DTITLE=Various Artist - I Don't Wanna Play House
DYEAR=0
DGENRE=Country
TTITLE0=Tammy Wynette - Women To Woman
TTITLE1=Tammy Wynette and George Jones - (We're Not) The Jet Set
TTITLE2=Tammy Wynette - Crying In The Rain
TTITLE3=Tammy Wynette - Til I Can Make It On My Own
TTITLE4=Tammy Wynette - Unwed Fathers
TTITLE5=Tammy Wynette and George Jones - Did You Ever
TTITLE6=Tammy Wynette - Good Lovin' (Makes It Right)
TTITLE7=Tammy Wynette - My Man (Understands)
TTITLE8=Tammy Wynette - They Call It Making Love
TTITLE9=Tammy Wynette - This Time I Almost Made It
TTITLE10=Tammy Wynette - Let's Get Together (Our Last Time)
TTITLE11=Tammy Wynette - One Of A Kind
TTITLE12=Tammy Wynette - Dear Daughters
TTITLE13=Tammy Wynette - Cowboys Don't Shoot Straight (Like They Use To)
TTITLE14=Tammy Wynette - You Still Get To Me In My Dreams
TTITLE15=Tammy Wynette - (I'm Not) A Candle In The Wind
EXTD=
EXTT0=
EXTT1=
EXTT2=
EXTT3=
EXTT4=
EXTT5=
EXTT6=
EXTT7=
EXTT8=
EXTT9=
EXTT10=
EXTT11=
EXTT12=
EXTT13=
EXTT14=
EXTT15=
PLAYORDER=
